# xmcd
#
# Track frame offsets:
#	150
#	13135
#	26606
#	40513
#	48157
#	61627
#	76539
#	91813
#	102855
#	111647
#	124575
#	136583
#	149201
#	159283
#	175385
#
# Disc length: 2576 seconds
#
# Revision: 1
# Processed by: cddbd v1.5.2PL0 Copyright (c) Steve Scherf et al.
# Submitted via: audiograbber 1.83.01
#
DISCID=b50a0e0f
DTITLE=Wayne Austin - By the old San Joaquin
DYEAR=2002
DGENRE=Country
TTITLE0=By the old San Joaquin
TTITLE1=Bandanas and chaps and old cowboy hats
TTITLE2=After all
TTITLE3=Song of the '49ers
TTITLE4=Lonesome range
TTITLE5=The Rio Sacramento Waltz
TTITLE6=Sierra timber wind
TTITLE7=Ridin' on the old S.P.
TTITLE8=Colorado trail
TTITLE9=Jesse James
TTITLE10=California moon
TTITLE11=Sierra trails
TTITLE12=Sail along silvery moon
TTITLE13=Adios querida- the ballad of Joaquin Murietta
TTITLE14=May God go with yoy
EXTD=
EXTT0=
EXTT1=
EXTT2=
EXTT3=
EXTT4=
EXTT5=
EXTT6=
EXTT7=
EXTT8=
EXTT9=
EXTT10=
EXTT11=
EXTT12=
EXTT13=
EXTT14=
PLAYORDER=
